<svg width="26" height="26" viewBox="0 0 26 26" fill="none" xmlns="http://www.w3.org/2000/svg">
<path d="M6.42008 15.4656L5.59733 18.537L2.5902 18.6006C1.69151 16.9338 1.18176 15.0266 1.18176 13C1.18176 11.0403 1.65837 9.1922 2.50318 7.56494H2.50383L5.18102 8.05576L6.35379 10.7169C6.10833 11.4325 5.97454 12.2007 5.97454 13C5.97464 13.8675 6.13178 14.6987 6.42008 15.4656Z" fill="#FBBB00"/>
<path d="M24.6116 10.7921C24.7474 11.507 24.8181 12.2453 24.8181 12.9999C24.8181 13.846 24.7292 14.6713 24.5597 15.4675C23.9844 18.1765 22.4811 20.5421 20.3987 22.2161L20.398 22.2155L17.026 22.0434L16.5487 19.0642C17.9305 18.2538 19.0104 16.9856 19.5793 15.4675H13.2598V10.7921H19.6715H24.6116Z" fill="#518EF8"/>
<path d="M20.398 22.2156L20.3986 22.2162C18.3733 23.8441 15.8006 24.8181 12.9999 24.8181C8.4993 24.8181 4.58633 22.3026 2.59021 18.6006L6.42008 15.4656C7.41812 18.1292 9.98761 20.0253 12.9999 20.0253C14.2947 20.0253 15.5078 19.6753 16.5486 19.0643L20.398 22.2156Z" fill="#28B446"/>
<path d="M20.5435 3.90253L16.7149 7.03693C15.6377 6.36357 14.3643 5.97459 13 5.97459C9.91949 5.97459 7.30195 7.95769 6.35391 10.7168L2.50391 7.56487C4.4708 3.77267 8.43248 1.18176 13 1.18176C15.8675 1.18176 18.4968 2.2032 20.5435 3.90253Z" fill="#F14336"/>
</svg>
